<svg xmlns="http://www.w3.org/2000/svg" width="153.094" height="63.25" viewBox="0 0 153.094 63.25">
  <defs>
    <style>
      .cls-1 {
        fill: #fff;
        fill-rule: evenodd;
      }
    </style>
  </defs>
  <path id="Лого" class="cls-1" d="M172.252,54.327c-1.742-1.855-4.228-2.08-7-2.08h-0.236a13.545,13.545,0,0,0-8.977-4.4c-3.5-.227-6.363-0.225-8.835.831,0.083-.669.152-1.546,0.209-2.225a4.276,4.276,0,0,0,1.635.211c3.068,0,6.287-2.584,6.567-8.248,0.133-3.125-.38-5.411-1.485-6.563a2.663,2.663,0,0,0-1.943-.867c-1.647,0-3.189,1.443-4.394,4.056,0-.286-0.007-0.539-0.011-0.77-0.008-.479-0.015-0.872-0.015-1.314,0-1.105-.053-1.731-1.137-1.731a1.532,1.532,0,0,0-1.081.479,2.559,2.559,0,0,0-.606,1.939c0.027,1.384.032,2.785,0.016,4.281-0.5,2.245-1.405,4.011-2.339,4.7a17.472,17.472,0,0,0,1.113-4.254c0.416-3.023-.042-5.638-1.227-7a2.1,2.1,0,0,0-1.986-.818,3.607,3.607,0,0,0-2.11,1.259,0.941,0.941,0,0,0-1.251-.341c-2.581,1.022-4.222,4.027-4.39,8.038a8.056,8.056,0,0,0,1.886,5.987,4.312,4.312,0,0,0,3.153,1.4,4.586,4.586,0,0,0,3.656-2.164,4.577,4.577,0,0,0,3.352-2c-0.119,2.493-.31,4.94-0.567,7.3a17.983,17.983,0,0,0-5.191,6.54c-1.982,3.934-1.764,7.546-.722,9.239a2.032,2.032,0,0,0,1.677,1.114c3.089,0,5.571-8.574,6.777-16.015a14.876,14.876,0,0,1,8.433-1.97,11.579,11.579,0,0,1,6.81,2.184,8.432,8.432,0,0,0-5.887,7.093,5.579,5.579,0,0,0,1.123,4.43,4.186,4.186,0,0,0,3.51,1.395,6.061,6.061,0,0,0,4.354-2.008,8.591,8.591,0,0,0,1.849-6.372,9.2,9.2,0,0,0-.605-2.767c3.908,0.64,6.258,3.985,6.055,8.758a10.014,10.014,0,0,1-9.894,9.407c-3,0-5.2-.734-6.357-2.12a4.526,4.526,0,0,1-.873-3.772c0.029-.144.058-0.269,0.083-0.378a1.043,1.043,0,0,0-.052-0.951,0.643,0.643,0,0,0-.531-0.238,1.726,1.726,0,0,0-.386.055,3.443,3.443,0,0,0-2.479,3.194c0,2.938,3.13,6.1,10,6.1,7.138,0,12.435-4.329,12.885-11.1A9.516,9.516,0,0,0,172.252,54.327ZM137.294,33.789a12.443,12.443,0,0,0-.58,5.411,6.581,6.581,0,0,0,2.586,4.921,1.513,1.513,0,0,1-2.041-.337,6.59,6.59,0,0,1-1.286-4.741A10.553,10.553,0,0,1,137.294,33.789Zm4.381,4.738a9.743,9.743,0,0,1-1.008,4.131c-1.171-.72-1.665-2.5-1.726-3.915-0.126-2.523.94-4.694,1.789-4.938a0.338,0.338,0,0,1,.2.126C141.4,34.429,141.832,36.079,141.675,38.528Zm7.328,6.1a2.2,2.2,0,0,1-1.394-.391l0.064-1.026c1.053-6.795,3.108-9.673,3.748-9.673a0.317,0.317,0,0,1,.244.132c0.457,0.486.869,2.161,0.657,5.4C152.074,42.553,150.832,44.631,149,44.631Zm-8.339,19.088a0.426,0.426,0,0,1-.28-0.232c-0.485-.785-0.561-3.245,1.219-6.806a15.355,15.355,0,0,1,2.142-3.214C142.707,60.1,141.248,63.435,140.664,63.719Zm22.624-2.779a2.756,2.756,0,0,1-2.037.916l-0.106,0a2.408,2.408,0,0,1-1.9-.837,3.857,3.857,0,0,1-.583-3.126,5.928,5.928,0,0,1,4.95-5,7.023,7.023,0,0,1,1.012,3.342A6.337,6.337,0,0,1,163.288,60.94Zm-30.7-14.2c-0.706-.257-1.436-1.93-0.9-8.442,0.288-3.707.407-5.851-.485-6.815a1.624,1.624,0,0,0-1.243-.51c-2.142,0-4.206,2.607-5.643,5.732a62.8,62.8,0,0,1,.461-6.927,10.828,10.828,0,0,0,5.118-5.162c1.819-3.574,1.584-7.381.411-9.294a2.047,2.047,0,0,0-1.662-1.146c-2.716,0-5.229,5.687-6.433,14.523a8.746,8.746,0,0,1-3.616.077,5.522,5.522,0,0,1-.89-0.235,6.814,6.814,0,0,0,2.914-5.476,5.952,5.952,0,0,0-1.413-4.5,7.229,7.229,0,0,0-5.263-2.1c-0.119,0-.24-0.006-0.362-0.006-4.45,0-9.151,2.4-9.528,6.991-0.385,4.034,3.193,6.385,6.652,8.658l0.7,0.457c3.306,2.219,6.235,4.527,5.763,8.348-0.383,3.135-4.334,5.658-8.542,5.332a7.315,7.315,0,0,1-5.2-2.563,6.725,6.725,0,0,1-1.432-5.144c0.266-1.976,1.128-3.487,3.093-5.41a1.247,1.247,0,0,0,.507-1.26,0.774,0.774,0,0,0-.986-0.382,8.419,8.419,0,0,0-3.021,1.227A7.593,7.593,0,0,0,99.3,37.892c-0.237,4.214,1.929,9.557,8.814,10.745a12.468,12.468,0,0,0,2.09.179c5.607,0,10.064-3.777,10.37-8.787,0.271-4.7-3.352-7.339-6.772-9.45l-0.375-.226c-3.318-2.01-6.453-3.908-5.965-7.635,0.385-2.849,3.109-4.125,5.637-4.125,0.179,0,.358.006,0.539,0.017,2.8,0.18,4.368,1.782,4.409,4.513A4.361,4.361,0,0,1,117,26.2a1.484,1.484,0,0,1-.984.5,0.982,0.982,0,0,1-.833-0.659,3.935,3.935,0,0,1-.064-2.181l0.082-.25a1.078,1.078,0,0,0,.039-1.033,0.641,0.641,0,0,0-.54-0.254,1.821,1.821,0,0,0-.389.053,3.031,3.031,0,0,0-2.288,2.588c-0.086,2.378,1.342,5.12,5.606,5.688a14.433,14.433,0,0,0,4.374-.04c-0.272,2.5-.447,5.15-0.521,7.891-0.034,1.627-.061,2.582-0.081,3.3-0.03,1.081-.046,1.618-0.046,3.075,0,1.246.184,1.689,1.221,1.689,0.57,0,1.548-.477,1.6-2.208,1.03-6.823,3.849-10.595,4.576-10.633a6.662,6.662,0,0,1-.06,2.078c-0.1.949-.22,2.13-0.25,3.55-0.125,5.843,1.006,8.811,3.452,9.075,1.211,0.149,1.436-.4,1.482-0.624A0.981,0.981,0,0,0,132.589,46.741ZM125.1,27.422c0.975-6.274,2.444-9.839,2.989-10.085a0.777,0.777,0,0,1,.292.408,8.869,8.869,0,0,1-.816,6.674A8.177,8.177,0,0,1,125.1,27.422ZM99.357,31.763l-0.149-.192a0.975,0.975,0,0,0-.823-0.288c-0.871,0-2.3.416-2.428,1.512-0.121.765-.25,2.066-0.342,3.452-0.653,5.235-2.2,8.13-3.025,8.13a0.923,0.923,0,0,1-.733-0.341c-1.068-1.212-1.183-5.218-.341-11.9l0.017-.272-0.149-.173a0.967,0.967,0,0,0-.776-0.255c-0.882,0-2.33.42-2.46,1.553a39.061,39.061,0,0,0-.189,6.827c-0.593,1.9-1.922,4.984-4.317,4.984a2.366,2.366,0,0,1-1.7-.787,7.231,7.231,0,0,1-1.485-5.14c0.162-3.7,1.283-6.605,2.554-6.605a0.719,0.719,0,0,1,.66.286c0.4,0.571.227,1.958-.154,3.028l-0.085.227a1.107,1.107,0,0,0-.088,1.071,0.753,0.753,0,0,0,.9.215c0.746-.14,2.269-0.94,2.4-1.938a5.185,5.185,0,0,0-1.028-3.688,2.911,2.911,0,0,0-2.228-.921c-3.25,0-5.89,3.8-6.142,8.84-0.011.323-.008,0.636,0,0.941-0.887,3.469-1.614,4.679-1.9,4.94-0.238-.4-0.552-2.322.433-7.49L75.8,37.5l-0.149-.173a1.1,1.1,0,0,0-.865-0.276A2.166,2.166,0,0,0,72.5,38.466a7.61,7.61,0,0,0-.1.873l-0.024.315c-0.553,3.1-1.664,4.722-2.477,4.722a0.7,0.7,0,0,1-.441-0.28c-0.668-.755-1.243-2.725-0.93-5.268,0.409-3.416,1.8-5.711,3.449-5.711a1.205,1.205,0,0,1,1.007.332,2.289,2.289,0,0,1-.076,1.838l-0.05.135a1.291,1.291,0,0,0-.116,1.23,0.818,0.818,0,0,0,.9.233c0.751-.141,2.27-1.026,2.4-2.031a3.173,3.173,0,0,0-.82-2.4,3.752,3.752,0,0,0-2.86-1.061c-2.827,0-6.365,2.139-7.02,8.2-1.059,3.519-2.406,5.159-2.982,5.159-0.762,0-1.956-2.252-2.252-7.255a51.594,51.594,0,0,0,5.367-12.886c0.824-3.547,1.377-9.306.025-11.009a1.359,1.359,0,0,0-1.09-.559c-3.947,0-7.127,12.153-7.669,20.868a27.239,27.239,0,0,0,.058,4.037c-0.884,4.186-2.549,6.852-3.315,6.852-0.716,0-1.839-2.136-2.122-6.881a49.187,49.187,0,0,0,5.112-12.272c0.786-3.384,1.31-8.88.018-10.508a1.319,1.319,0,0,0-1.057-.541c-3.774,0-6.811,11.589-7.328,19.9-0.348,6.009,1.305,10.022,2.826,11.634a2.949,2.949,0,0,0,2.084,1.07c1.842,0,3.5-2.5,4.574-5.107,0.962,3.124,2.6,5.128,4.281,5.128,1.282,0,2.661-1.237,3.876-3.441,0.728,2.059,2.158,3.127,3.394,3.127,0.054,0,.109,0,0.17-0.007,1.179-.1,2.307-1.015,3.258-2.606,0.384,2.142,1.215,3.415,2.3,3.415,1.318,0,2.429-1.845,3.229-3.771A5.525,5.525,0,0,0,83,47.329c2.064,0,4.039-1.473,5.54-4.09,0.923,3.044,2.593,3.538,3.579,3.538s1.945-.712,2.814-2.049l-0.029.277a29.313,29.313,0,0,0-5.631,9.629c-1.05,2.935-1.024,6.062.063,7.606a1.933,1.933,0,0,0,1.6.911c1.851,0,4.649-2.534,7.579-24.438,0.46-3.182.8-6.653,0.8-6.653ZM51.371,33.751c0.36-6.165,2.415-14.455,3.449-15.846,0.291,0.879.341,4.073-.64,7.848A55.106,55.106,0,0,1,51.371,33.751Zm8.741-.488c0.359-6.57,2.574-15.468,3.662-16.826,0.321,0.863.4,4.251-.656,8.3A58.059,58.059,0,0,1,60.112,33.263ZM94.38,48.854c-1.115,7.679-2.342,10.906-2.905,11.133a0.517,0.517,0,0,1-.311-0.25c-0.466-.67-0.614-2.328.368-4.973A35.705,35.705,0,0,1,94.38,48.854Zm-13.049,2.2a1.143,1.143,0,0,0-.671-0.317A0.758,0.758,0,0,0,80,51.3a4.973,4.973,0,0,1-.244.473C79.158,52.85,77.222,53.4,74,53.4a88.1,88.1,0,0,1-13.181-1.5c-5.3-.9-11.342-1.861-16.306-2.207a105.264,105.264,0,0,0,2.024-15.684c0-.594-0.9-0.727-1.22-0.727-0.4,0-1.707.165-1.785,2.288L43.4,38.114c-0.466,2.514-1.867,6.761-6.016,6.964-0.093.005-.185,0.007-0.277,0.007h0a5.248,5.248,0,0,1-4.081-1.842c-1.966-2.223-2.794-6.368-2.215-11.088a25.248,25.248,0,0,1,1.078-4.794c6.623-.152,12.936-3.159,14.472-6.93a4.171,4.171,0,0,0-.195-3.949c-0.9-1.34-2.717-1.936-4.95-1.636-4.624.6-9.214,4.479-11.788,9.939-2.911-.823-5.416-3.3-4.78-6.645,0.918-4.905,7.433-6.508,9.575-6.508a1.889,1.889,0,0,1,.627.07,2.667,2.667,0,0,0,.929.17,1.051,1.051,0,0,0,1.163-.659c0.163-.721-0.817-1.186-1.195-1.366a2.924,2.924,0,0,0-1.152-.172c-2.919,0-11.343,2.038-12.655,8.6a6.678,6.678,0,0,0,.917,5.222,9.34,9.34,0,0,0,5.666,3.549,23.976,23.976,0,0,0-1.224,5.5c-0.54,4.97.538,9.365,2.956,12.06a8.379,8.379,0,0,0,6.408,2.821l0.3,0A8.437,8.437,0,0,0,42.782,44.8a47.56,47.56,0,0,1-.822,4.789Q41.416,49.58,40.9,49.58c-5.931,0-9.245,1.228-10.428,3.857a4.409,4.409,0,0,0,.28,4.364,6.276,6.276,0,0,0,5.219,2.765,5.971,5.971,0,0,0,.968-0.079c3.221-.576,5.467-3.344,7.048-8.7a111.354,111.354,0,0,1,16.325,2.306c0.975,0.2,1.958.412,2.939,0.621,5.341,1.137,10.386,2.21,14.055,2.21,2.11,0,3.572-.365,4.466-1.112A2.6,2.6,0,0,0,82.8,53.628,3.434,3.434,0,0,0,81.331,51.056ZM37.243,57.889a3.357,3.357,0,0,1-1.092.189,2.614,2.614,0,0,1-2.33-1.3,2.947,2.947,0,0,1,.231-3.01c0.541-.877,2.266-1.914,7.353-2C40.364,55.215,38.963,57.271,37.243,57.889Zm3.331-40.608A4.781,4.781,0,0,1,41.41,17.2a1.728,1.728,0,0,1,1.5.617,2.407,2.407,0,0,1-.12,2.21c-1.309,2.744-6.05,4.726-10,5.039C34.738,20.9,37.807,17.808,40.574,17.281Z" transform="translate(-21.75 -9.688)"/>
</svg>
