<svg xmlns="http://www.w3.org/2000/svg" width="31.375" height="31.4" viewBox="0 0 31.375 31.4">
  <defs>
    <style>
      .cls-1 {
        fill: #fff;
        fill-rule: evenodd;
      }
    </style>
  </defs>
  <path id="Твитер" class="cls-1" d="M45.427,1574.17a15.69,15.69,0,1,1-15.692,15.69A15.688,15.688,0,0,1,45.427,1574.17Zm9.137,10.81a7.331,7.331,0,0,1-2.092.57,3.663,3.663,0,0,0,1.6-2.02,7.4,7.4,0,0,1-2.313.89,3.645,3.645,0,0,0-6.207,3.32,10.316,10.316,0,0,1-7.507-3.81,3.655,3.655,0,0,0,1.127,4.87,3.68,3.68,0,0,1-1.65-.46c0,0.02,0,.03,0,0.05a3.651,3.651,0,0,0,2.922,3.57,3.789,3.789,0,0,1-.96.13,3.859,3.859,0,0,1-.685-0.07,3.643,3.643,0,0,0,3.4,2.53,7.29,7.29,0,0,1-4.523,1.56,8.291,8.291,0,0,1-.869-0.05,10.354,10.354,0,0,0,15.946-8.73c0-.16,0-0.31-0.011-0.47A7.329,7.329,0,0,0,54.565,1584.98Z" transform="translate(-29.75 -1574.16)"/>
</svg>
